<?xml version="1.0" encoding="UTF-8"?>
<svg id="Warstwa_1" data-name="Warstwa 1" xmlns="http://www.w3.org/2000/svg" viewBox="0 0 512 512">
  <defs>
    <style>
      .cls-1 {
        fill: none;
      }

      .cls-2 {
        fill: #4ba3e0;
      }

      .cls-3 {
        fill: #58b9ed;
      }
    </style>
  </defs>
  <g>
    <path class="cls-2" d="M389.83,450.81c.12-.16.26-.32.4-.48v-3.14c0,1.23-.14,2.46-.4,3.62Z"/>
    <path class="cls-2" d="M390.23,447.19v3.14c-.14.16-.28.32-.4.48.26-1.15.4-2.38.4-3.62Z"/>
    <path class="cls-2" d="M238.77,463.88c-.64.12-1.25.24-1.87.38h2.24l-.38-.38ZM263.87,462.67v1.61h11.08c-3.42-.75-7.09-1.31-11.08-1.61ZM389.83,450.81c.12-.16.26-.32.4-.48v-3.14c0,1.23-.14,2.46-.4,3.62Z"/>
    <path class="cls-2" d="M239.14,464.26h-2.24c.62-.14,1.23-.26,1.87-.38l.38.38Z"/>
    <path class="cls-2" d="M274.96,464.28h-11.08v-1.61c3.99.3,7.67.85,11.08,1.61Z"/>
    <path class="cls-3" d="M393.37,432.16c20.5-18.59,37.21-41.28,48.85-66.78-49.2-14.72-85.04-60.33-85.04-114.32,0-42.67,22.41-80.13,56.1-101.21-37.5-45.07-94-73.74-157.21-73.74-112.93,0-204.5,91.55-204.5,204.5,0,54.33,21.2,103.71,55.76,140.34l-28.8,46.7c-6.06,9.83-2.98,22.7,6.87,28.74,9.83,6.06,22.7,2.98,28.76-6.87l25.27-40.94c33.09,23.04,73.3,36.53,116.64,36.53,37.78,0,73.14-10.25,103.49-28.11l20.08,32.52c6.04,9.85,18.91,12.93,28.74,6.87,9.85-6.04,12.93-18.91,6.89-28.74l-21.91-35.5ZM236.9,464.26c.62-.14,1.23-.26,1.87-.38l.38.38h-2.24ZM263.87,464.28v-1.61c3.99.3,7.67.85,11.08,1.61h-11.08ZM302.67,285.02c-2.8,0-5.46-.52-7.93-1.43l-49.16,49.14v9.99l-20.14.26v-129.73c-7.61-3.73-12.87-11.54-12.87-20.58,0-12.65,10.29-22.94,22.94-22.94s22.94,10.29,22.94,22.94c0,9.04-5.26,16.84-12.87,20.58v90.98l35.22-35.22c-.7-2.19-1.07-4.51-1.07-6.93,0-12.65,10.31-22.94,22.94-22.94s22.96,10.29,22.96,22.94-10.31,22.94-22.96,22.94ZM390.23,450.33c-.14.16-.28.32-.4.48.26-1.15.4-2.38.4-3.62v3.14Z"/>
    <path class="cls-2" d="M239.14,464.26h-2.24c.62-.14,1.23-.26,1.87-.38l.38.38Z"/>
    <path class="cls-2" d="M274.96,464.28h-11.08v-1.61c3.99.3,7.67.85,11.08,1.61Z"/>
    <g>
      <path class="cls-3" d="M174.48,51.84l-125.8,95.03c-4.99,3.77-12.15,2.09-14.99-3.49-8.07-15.86-11.54-34.26-8.89-53.22C31.66,40.89,77.17,6.51,126.45,13.37c18.96,2.64,35.72,11.01,48.76,23.1,4.59,4.25,4.25,11.6-.74,15.37Z"/>
      <path class="cls-3" d="M336.78,36.47c13.05-12.1,29.8-20.46,48.76-23.1,49.28-6.87,94.8,27.52,101.66,76.8,2.64,18.96-.82,37.36-8.89,53.22-2.84,5.57-10,7.25-14.99,3.49l-125.8-95.03c-4.99-3.77-5.33-11.12-.74-15.37Z"/>
    </g>
  </g>
  <rect class="cls-1" width="512" height="512"/>
</svg>