<?xml version="1.0" encoding="UTF-8"?>
<svg id="Warstwa_1" data-name="Warstwa 1" xmlns="http://www.w3.org/2000/svg" viewBox="0 0 512 512">
  <defs>
    <style>
      .cls-1 {
        fill: none;
      }

      .cls-2 {
        fill: #fff;
      }
    </style>
  </defs>
  <g>
    <path class="cls-2" d="M377.64,463.66c4.24-3.87,8.3-8.2,12.19-12.85l-12.19,12.85ZM389.83,450.82c.14-.17.27-.33.41-.49v-3.15c0,1.24-.14,2.47-.41,3.63Z"/>
    <g>
      <path class="cls-2" d="M144.61,440.19l-30.46,49.34c-6.04,9.84-18.92,12.92-28.76,6.88-9.84-6.04-12.92-18.92-6.88-28.76l32.51-52.68c10.39,9.37,21.63,17.82,33.59,25.21Z"/>
      <path class="cls-2" d="M349.18,440.19l30.46,49.34c6.04,9.84,18.92,12.92,28.76,6.88,9.84-6.04,12.92-18.92,6.88-28.76l-32.51-52.68c-10.39,9.37-21.63,17.82-33.59,25.21Z"/>
    </g>
    <path class="cls-2" d="M238.76,463.88c-.62.14-1.24.23-1.87.37h2.23l-.37-.37ZM263.87,462.65v1.61h11.1c-3.42-.74-7.09-1.3-11.1-1.61ZM389.83,450.82c.14-.17.27-.33.41-.49v-3.15c0,1.24-.14,2.47-.41,3.63Z"/>
    <path class="cls-2" d="M238.76,463.88l.38.38h-2.24c.61-.14,1.24-.25,1.87-.38Z"/>
    <path class="cls-2" d="M274.96,464.27h-11.09v-1.61c4,.31,7.67.87,11.09,1.61Z"/>
    <path class="cls-2" d="M357.16,251.07c0-42.68,22.43-80.13,56.13-101.24-37.51-45.05-94.01-73.74-157.23-73.74-112.94,0-204.49,91.58-204.49,204.51,0,54.34,21.18,103.7,55.78,140.32,9.66,10.28,20.43,19.55,32.07,27.66,33.08,23.01,73.29,36.52,116.65,36.52,37.76,0,73.13-10.24,103.51-28.08,12.11-7.13,23.44-15.47,33.8-24.86,20.5-18.58,37.22-41.28,48.86-66.78-49.21-14.73-85.07-60.34-85.07-114.32ZM302.68,285.02c-2.8,0-5.46-.52-7.95-1.44l-49.15,49.15v10.01l-20.15.23v-129.71c-7.6-3.75-12.87-11.56-12.87-20.6,0-12.65,10.3-22.93,22.95-22.93s22.93,10.28,22.93,22.93c0,9.04-5.25,16.85-12.87,20.6v90.97l35.22-35.22c-.7-2.2-1.07-4.53-1.07-6.94,0-12.65,10.3-22.95,22.95-22.95s22.93,10.3,22.93,22.95-10.28,22.93-22.93,22.93Z"/>
    <g>
      <path class="cls-2" d="M174.48,51.85l-125.8,95.04c-4.99,3.77-12.15,2.09-14.99-3.49-8.07-15.86-11.54-34.26-8.89-53.22C31.66,40.89,77.17,6.51,126.45,13.37c18.96,2.64,35.72,11.01,48.76,23.1,4.59,4.25,4.25,11.6-.74,15.37Z"/>
      <path class="cls-2" d="M336.78,36.47c13.05-12.1,29.8-20.46,48.76-23.1,49.28-6.87,94.8,27.52,101.66,76.8,2.64,18.96-.82,37.36-8.89,53.22-2.84,5.57-10,7.25-14.99,3.49l-125.8-95.04c-4.99-3.77-5.33-11.12-.74-15.37Z"/>
    </g>
  </g>
  <rect class="cls-1" width="512" height="512"/>
</svg>