<?xml version="1.0" encoding="UTF-8"?>
<svg id="Warstwa_1" data-name="Warstwa 1" xmlns="http://www.w3.org/2000/svg" viewBox="0 0 256 256">
  <defs>
    <style>
      .cls-1 {
        fill: none;
      }

      .cls-2 {
        fill: #4ba3e0;
      }

      .cls-3 {
        fill: #58b9ed;
      }
    </style>
  </defs>
  <g>
    <path class="cls-2" d="M196.86,228.24c.06-.08.13-.16.2-.25v-1.61c0,.63-.07,1.27-.2,1.86Z"/>
    <path class="cls-2" d="M197.07,226.38v1.61c-.07.08-.14.16-.2.25.13-.59.2-1.23.2-1.86Z"/>
    <path class="cls-2" d="M119.13,234.96c-.33.06-.64.12-.96.19h1.15l-.19-.19ZM132.05,234.34v.83h5.7c-1.76-.39-3.65-.67-5.7-.83ZM196.86,228.24c.06-.08.13-.16.2-.25v-1.61c0,.63-.07,1.27-.2,1.86Z"/>
    <path class="cls-2" d="M119.33,235.16h-1.15c.32-.07.63-.13.96-.19l.19.19Z"/>
    <path class="cls-2" d="M137.76,235.17h-5.7v-.83c2.05.15,3.95.44,5.7.83Z"/>
    <path class="cls-3" d="M198.68,218.64c10.55-9.57,19.14-21.24,25.13-34.36-25.32-7.57-43.76-31.04-43.76-58.82,0-21.95,11.53-41.23,28.86-52.08-19.3-23.19-48.37-37.94-80.89-37.94-58.11,0-105.22,47.11-105.22,105.22,0,27.95,10.91,53.36,28.69,72.21l-14.82,24.03c-3.12,5.06-1.53,11.68,3.54,14.79,5.06,3.12,11.68,1.53,14.8-3.54l13-21.07c17.03,11.86,37.72,18.8,60.02,18.8,19.44,0,37.63-5.27,53.25-14.46l10.33,16.73c3.11,5.07,9.73,6.65,14.79,3.54,5.07-3.11,6.65-9.73,3.55-14.79l-11.27-18.26ZM118.17,235.16c.32-.07.63-.13.96-.19l.19.19h-1.15ZM132.05,235.17v-.83c2.05.15,3.95.44,5.7.83h-5.7ZM152.01,142.93c-1.44,0-2.81-.27-4.08-.74l-25.3,25.29v5.14l-10.36.13v-66.75c-3.91-1.92-6.62-5.94-6.62-10.59,0-6.51,5.29-11.81,11.81-11.81s11.81,5.29,11.81,11.81c0,4.65-2.71,8.67-6.62,10.59v46.81l18.12-18.12c-.36-1.12-.55-2.32-.55-3.57,0-6.51,5.3-11.81,11.81-11.81s11.82,5.29,11.82,11.81-5.3,11.81-11.82,11.81ZM197.07,227.99c-.07.08-.14.16-.2.25.13-.59.2-1.23.2-1.86v1.61Z"/>
    <path class="cls-2" d="M119.33,235.16h-1.15c.32-.07.63-.13.96-.19l.19.19Z"/>
    <path class="cls-2" d="M137.76,235.17h-5.7v-.83c2.05.15,3.95.44,5.7.83Z"/>
    <g>
      <path class="cls-3" d="M86.05,22.95L21.32,71.85c-2.57,1.94-6.25,1.07-7.71-1.79-4.15-8.16-5.94-17.63-4.58-27.39C12.57,17.32,35.99-.38,61.34,3.16c9.76,1.36,18.38,5.66,25.09,11.89,2.36,2.19,2.18,5.97-.38,7.91Z"/>
      <path class="cls-3" d="M169.57,15.04c6.71-6.22,15.34-10.53,25.09-11.89,25.36-3.53,48.78,14.16,52.31,39.52,1.36,9.76-.42,19.23-4.58,27.39-1.46,2.87-5.15,3.73-7.71,1.79l-64.73-48.9c-2.57-1.94-2.74-5.72-.38-7.91Z"/>
    </g>
  </g>
  <rect class="cls-1" x="0" width="256" height="256"/>
</svg>