<?xml version="1.0" encoding="UTF-8"?>
<svg id="Warstwa_1" data-name="Warstwa 1" xmlns="http://www.w3.org/2000/svg" viewBox="0 0 256 256">
  <defs>
    <style>
      .cls-1 {
        fill: none;
      }

      .cls-2 {
        fill: #fff;
      }
    </style>
  </defs>
  <g>
    <path class="cls-2" d="M190.59,234.85c2.18-1.99,4.27-4.22,6.27-6.61l-6.27,6.61ZM196.86,228.24c.07-.09.14-.17.21-.25v-1.62c0,.64-.07,1.27-.21,1.87Z"/>
    <g>
      <path class="cls-2" d="M70.68,222.77l-15.67,25.39c-3.11,5.06-9.73,6.65-14.8,3.54-5.06-3.11-6.65-9.73-3.54-14.8l16.73-27.1c5.35,4.82,11.13,9.17,17.28,12.97Z"/>
      <path class="cls-2" d="M175.94,222.77l15.67,25.39c3.11,5.06,9.73,6.65,14.8,3.54,5.06-3.11,6.65-9.73,3.54-14.8l-16.73-27.1c-5.35,4.82-11.13,9.17-17.28,12.97Z"/>
    </g>
    <path class="cls-2" d="M119.13,234.96c-.32.07-.64.12-.96.19h1.15l-.19-.19ZM132.05,234.33v.83h5.71c-1.76-.38-3.65-.67-5.71-.83ZM196.86,228.24c.07-.09.14-.17.21-.25v-1.62c0,.64-.07,1.27-.21,1.87Z"/>
    <path class="cls-2" d="M119.13,234.96l.19.19h-1.15c.32-.07.64-.13.96-.19Z"/>
    <path class="cls-2" d="M137.76,235.16h-5.71v-.83c2.06.16,3.95.45,5.71.83Z"/>
    <path class="cls-2" d="M180.05,125.46c0-21.96,11.54-41.23,28.88-52.09-19.3-23.18-48.37-37.94-80.9-37.94-58.11,0-105.22,47.12-105.22,105.23,0,27.96,10.9,53.36,28.7,72.2,4.97,5.29,10.51,10.06,16.5,14.23,17.02,11.84,37.71,18.79,60.02,18.79,19.43,0,37.63-5.27,53.26-14.45,6.23-3.67,12.06-7.96,17.39-12.79,10.55-9.56,19.15-21.24,25.14-34.36-25.32-7.58-43.77-31.05-43.77-58.82ZM152.02,142.93c-1.44,0-2.81-.27-4.09-.74l-25.29,25.29v5.15l-10.37.12v-66.74c-3.91-1.93-6.62-5.95-6.62-10.6,0-6.51,5.3-11.8,11.81-11.8s11.8,5.29,11.8,11.8c0,4.65-2.7,8.67-6.62,10.6v46.81l18.12-18.12c-.36-1.13-.55-2.33-.55-3.57,0-6.51,5.3-11.81,11.81-11.81s11.8,5.3,11.8,11.81-5.29,11.8-11.8,11.8Z"/>
    <g>
      <path class="cls-2" d="M86.05,22.95L21.32,71.85c-2.57,1.94-6.25,1.07-7.71-1.79-4.15-8.16-5.94-17.63-4.58-27.39C12.57,17.32,35.99-.38,61.34,3.16c9.76,1.36,18.38,5.66,25.09,11.89,2.36,2.19,2.18,5.97-.38,7.91Z"/>
      <path class="cls-2" d="M169.57,15.05c6.71-6.22,15.34-10.53,25.09-11.89,25.36-3.53,48.78,14.16,52.31,39.52,1.36,9.76-.42,19.23-4.58,27.39-1.46,2.87-5.15,3.73-7.71,1.79l-64.73-48.9c-2.57-1.94-2.74-5.72-.38-7.91Z"/>
    </g>
  </g>
  <rect class="cls-1" x="0" width="256" height="256"/>
</svg>