<?xml version="1.0" encoding="UTF-8"?>
<svg id="Warstwa_1" data-name="Warstwa 1" xmlns="http://www.w3.org/2000/svg" viewBox="0 0 512 512">
  <defs>
    <style>
      .cls-1 {
        fill: #fff;
      }

      .cls-2 {
        fill: #58b9ed;
      }
    </style>
  </defs>
  <rect class="cls-2" width="512" height="512"/>
  <g>
    <path class="cls-1" d="M364.49,413.92c.1-.13.21-.26.32-.39v-2.54c0,1-.11,2-.32,2.93Z"/>
    <path class="cls-1" d="M364.82,410.99v2.54c-.11.13-.23.26-.32.39.21-.93.32-1.93.32-2.93Z"/>
    <path class="cls-1" d="M242.03,424.52c-.52.1-1.01.19-1.51.31h1.82l-.31-.31ZM262.38,423.54v1.3h8.99c-2.77-.61-5.75-1.06-8.99-1.3ZM364.49,413.92c.1-.13.21-.26.32-.39v-2.54c0,1-.11,2-.32,2.93Z"/>
    <path class="cls-1" d="M242.34,424.82h-1.82c.5-.11,1-.21,1.51-.31l.31.31Z"/>
    <path class="cls-1" d="M271.37,424.84h-8.99v-1.3c3.24.24,6.22.69,8.99,1.3Z"/>
    <path class="cls-1" d="M367.36,398.8c16.62-15.07,30.16-33.46,39.6-54.14-39.89-11.93-68.94-48.91-68.94-92.67,0-34.59,18.16-64.96,45.48-82.05-30.4-36.54-76.2-59.77-127.44-59.77-91.55,0-165.78,74.22-165.78,165.78,0,44.04,17.18,84.07,45.2,113.77l-23.35,37.86c-4.91,7.97-2.42,18.41,5.57,23.3,7.97,4.91,18.41,2.42,23.32-5.57l20.48-33.19c26.83,18.68,59.42,29.61,94.56,29.61,30.63,0,59.29-8.31,83.9-22.79l16.28,26.36c4.9,7.99,15.33,10.48,23.3,5.57,7.99-4.9,10.48-15.33,5.59-23.3l-17.76-28.78ZM240.52,424.82c.5-.11,1-.21,1.51-.31l.31.31h-1.82ZM262.38,424.84v-1.3c3.24.24,6.22.69,8.99,1.3h-8.99ZM293.83,279.53c-2.27,0-4.43-.42-6.43-1.16l-39.86,39.84v8.1l-16.33.21v-105.17c-6.17-3.03-10.43-9.36-10.43-16.68,0-10.26,8.34-18.6,18.6-18.6s18.6,8.34,18.6,18.6c0,7.33-4.27,13.66-10.43,16.68v73.75l28.55-28.55c-.56-1.77-.87-3.66-.87-5.62,0-10.26,8.36-18.6,18.6-18.6s18.62,8.34,18.62,18.6-8.36,18.6-18.62,18.6ZM364.82,413.54c-.11.13-.23.26-.32.39.21-.93.32-1.93.32-2.93v2.54Z"/>
    <path class="cls-1" d="M242.34,424.82h-1.82c.5-.11,1-.21,1.51-.31l.31.31Z"/>
    <path class="cls-1" d="M271.37,424.84h-8.99v-1.3c3.24.24,6.22.69,8.99,1.3Z"/>
    <g>
      <path class="cls-1" d="M189.91,90.5l-101.98,77.04c-4.04,3.06-9.85,1.69-12.15-2.83-6.54-12.86-9.35-27.77-7.21-43.15,5.57-39.95,42.46-67.82,82.41-62.26,15.37,2.14,28.95,8.92,39.53,18.73,3.72,3.45,3.44,9.4-.6,12.46Z"/>
      <path class="cls-1" d="M321.49,78.04c10.58-9.81,24.16-16.59,39.53-18.73,39.95-5.57,76.85,22.31,82.41,62.26,2.14,15.37-.67,30.29-7.21,43.15-2.3,4.52-8.11,5.88-12.15,2.83l-101.98-77.04c-4.04-3.06-4.32-9.01-.6-12.46Z"/>
    </g>
  </g>
</svg>