<?xml version="1.0" encoding="UTF-8"?>
<svg id="Warstwa_1" data-name="Warstwa 1" xmlns="http://www.w3.org/2000/svg" viewBox="0 0 256 256">
  <defs>
    <style>
      .cls-1 {
        fill: #fff;
      }

      .cls-2 {
        fill: #58b9ed;
      }
    </style>
  </defs>
  <rect class="cls-2" width="256" height="256"/>
  <g>
    <path class="cls-1" d="M185.03,211.01c.05-.07.11-.14.17-.2v-1.34c0,.52-.06,1.05-.17,1.54Z"/>
    <path class="cls-1" d="M185.2,209.47v1.34c-.06.07-.12.14-.17.2.11-.49.17-1.02.17-1.54Z"/>
    <path class="cls-1" d="M120.66,216.58c-.27.05-.53.1-.8.16h.96l-.16-.16ZM131.36,216.07v.69h4.72c-1.46-.32-3.02-.56-4.72-.69ZM185.03,211.01c.05-.07.11-.14.17-.2v-1.34c0,.52-.06,1.05-.17,1.54Z"/>
    <path class="cls-1" d="M120.82,216.74h-.96c.26-.06.52-.11.8-.16l.16.16Z"/>
    <path class="cls-1" d="M136.08,216.75h-4.72v-.69c1.7.13,3.27.36,4.72.69Z"/>
    <path class="cls-1" d="M186.54,203.06c8.74-7.92,15.85-17.59,20.81-28.46-20.97-6.27-36.24-25.71-36.24-48.71,0-18.18,9.55-34.15,23.9-43.13-15.98-19.21-40.06-31.42-66.99-31.42-48.12,0-87.14,39.01-87.14,87.14,0,23.15,9.03,44.19,23.76,59.8l-12.27,19.9c-2.58,4.19-1.27,9.68,2.93,12.25,4.19,2.58,9.68,1.27,12.26-2.93l10.77-17.45c14.1,9.82,31.23,15.57,49.7,15.57,16.1,0,31.17-4.37,44.1-11.98l8.56,13.86c2.57,4.2,8.06,5.51,12.25,2.93,4.2-2.57,5.51-8.06,2.94-12.25l-9.34-15.13ZM119.86,216.74c.26-.06.52-.11.8-.16l.16.16h-.96ZM131.36,216.75v-.69c1.7.13,3.27.36,4.72.69h-4.72ZM147.89,140.37c-1.19,0-2.33-.22-3.38-.61l-20.95,20.94v4.26l-8.58.11v-55.28c-3.24-1.59-5.49-4.92-5.49-8.77,0-5.39,4.38-9.78,9.78-9.78s9.78,4.38,9.78,9.78c0,3.85-2.24,7.18-5.49,8.77v38.77l15.01-15.01c-.3-.93-.46-1.92-.46-2.95,0-5.39,4.39-9.78,9.78-9.78s9.79,4.38,9.79,9.78-4.39,9.78-9.79,9.78ZM185.2,210.81c-.06.07-.12.14-.17.2.11-.49.17-1.02.17-1.54v1.34Z"/>
    <path class="cls-1" d="M120.82,216.74h-.96c.26-.06.52-.11.8-.16l.16.16Z"/>
    <path class="cls-1" d="M136.08,216.75h-4.72v-.69c1.7.13,3.27.36,4.72.69Z"/>
    <g>
      <path class="cls-1" d="M93.26,41l-53.61,40.5c-2.13,1.61-5.18.89-6.39-1.49-3.44-6.76-4.92-14.6-3.79-22.68,2.93-21,22.32-35.65,43.32-32.73,8.08,1.13,15.22,4.69,20.78,9.84,1.95,1.81,1.81,4.94-.32,6.55Z"/>
      <path class="cls-1" d="M162.42,34.45c5.56-5.16,12.7-8.72,20.78-9.84,21-2.93,40.4,11.73,43.32,32.73,1.13,8.08-.35,15.92-3.79,22.68-1.21,2.37-4.26,3.09-6.39,1.49l-53.61-40.5c-2.13-1.61-2.27-4.74-.32-6.55Z"/>
    </g>
  </g>
</svg>